# xmcd CD database file
#
# Track frame offsets:
#	150
#	17365
#	40115
#	58680
#	89465
#	116117
#	138070
#	162245
#	187275
#	218700
#	238295
#	250170
#	276422
#	308195
#
# Disc length: 4460 seconds
#
# Revision: 0
# Processed by: cddbd v1.5.1PL2 Copyright (c) Steve Scherf et al.
# Submitted via: CDex 1.50Beta7
#
DISCID=c9116a0e
DTITLE=憂歌団 - Ukadan Live '89 〜Big Town Tour〜
DYEAR=1989
DGENRE=Blues
TTITLE0=Midnight Drinker
TTITLE1=ドロボー
TTITLE2=10＄の恋
TTITLE3=シカゴ・バウンド
TTITLE4=おそうじオバチャン
TTITLE5=どす黒いやつ
TTITLE6=大阪ビッグ・リバー・ブルース
TTITLE7=胸が痛い
TTITLE8=家に帰ろう
TTITLE9=夢
TTITLE10=嫌んなった
TTITLE11=Stealin'
TTITLE12=キスに願いを
TTITLE13=君といつまでも (ステイ・ウィズ・ユー・フォーエバー)
EXTD=YEAR: 1989
EXTT0=
EXTT1=
EXTT2=
EXTT3=
EXTT4=
EXTT5=
EXTT6=
EXTT7=
EXTT8=
EXTT9=
EXTT10=
EXTT11=
EXTT12=
EXTT13=
PLAYORDER=
